<?xml version="1.0" encoding="utf-8"?>
<!-- Generator: Adobe Illustrator 25.0.1, SVG Export Plug-In . SVG Version: 6.00 Build 0)  -->
<svg version="1.0"
	 id="svg2" xmlns:cc="http://creativecommons.org/ns#" xmlns:dc="http://purl.org/dc/elements/1.1/" xmlns:inkscape="http://www.inkscape.org/namespaces/inkscape" xmlns:rdf="http://www.w3.org/1999/02/22-rdf-syntax-ns#" xmlns:sodipodi="http://sodipodi.sourceforge.net/DTD/sodipodi-0.dtd" xmlns:svg="http://www.w3.org/2000/svg"
	 xmlns="http://www.w3.org/2000/svg" xmlns:xlink="http://www.w3.org/1999/xlink" x="0px" y="0px" viewBox="0 0 428.7 271.9"
	 style="enable-background:new 0 0 428.7 271.9;" xml:space="preserve">
<style type="text/css">
	.st0{fill:#292829;}
	.st1{fill:#59AFD8;}
	.st2{fill:#8DCFE7;}
	.st3{fill:#B4DBE9;}
	.st4{fill:#D5E6EB;}
</style>
<sodipodi:namedview  bordercolor="#666666" borderopacity="1" fit-margin-bottom="0" fit-margin-left="0" fit-margin-right="0" fit-margin-top="0" gridtolerance="10" guidetolerance="10" id="namedview4" inkscape:current-layer="g10" inkscape:cx="94.306087" inkscape:cy="15.647991" inkscape:pageopacity="0" inkscape:pageshadow="2" inkscape:window-height="1017" inkscape:window-maximized="1" inkscape:window-width="1920" inkscape:window-x="-8" inkscape:window-y="-8" inkscape:zoom="1.7878788" objecttolerance="10" pagecolor="#ffffff" showgrid="false">
	</sodipodi:namedview>
<g id="g10" transform="matrix(1.3333333,0,0,-1.3333333,-36.000529,1020.0001)" inkscape:groupmode="layer" inkscape:label="A9R1pzenz0_1l59dai_2mc">
	<g id="g8450" transform="matrix(4.7483077,0,0,4.7483077,-101.20581,-2867.4558)">
		<g id="g12" transform="translate(30.3474,764.7073)">
			<path id="path14" inkscape:connector-curvature="0" class="st0" d="M7.2-16.4H10v-3.3h3.3v-2.8H10v-3.4H7.2v3.4H3.9v2.8h3.3
				V-16.4z"/>
		</g>
		<g id="g16" transform="translate(44.2004,764.6855)">
			<path id="path18" inkscape:connector-curvature="0" class="st1" d="M7.2-16.4H11c2,0,3.4-0.9,3.4-3.1c0-2.2-1.2-3.2-3.4-3.2H9.7
				v-3.1H7.2V-16.4z M9.7-20.8h0.4c0.9,0,1.8,0,1.8,1.2c0,1.2-0.8,1.2-1.8,1.2H9.7V-20.8z"/>
		</g>
		<g id="g20" transform="translate(62.5391,760.1161)">
			<path id="path22" inkscape:connector-curvature="0" class="st2" d="M7.2-16.4c0-3.1-2.2-5.2-5.2-5.2s-5.2,2.2-5.2,5.2
				c0,2.9,2.5,4.9,5.2,4.9S7.2-13.5,7.2-16.4 M-0.7-16.4c0-1.6,1.2-2.8,2.7-2.8c1.5,0,2.7,1.2,2.7,2.8c0,1.3-1.2,2.5-2.7,2.5
				C0.5-13.9-0.7-15.1-0.7-16.4"/>
		</g>
		<g id="g24" transform="translate(73.7027,760.1161)">
			<path id="path26" inkscape:connector-curvature="0" class="st3" d="M7.2-16.4c0-3.1-2.2-5.2-5.2-5.2c-3,0-5.2,2.2-5.2,5.2
				c0,2.9,2.5,4.9,5.2,4.9C4.7-11.5,7.2-13.5,7.2-16.4 M-0.7-16.4c0-1.6,1.2-2.8,2.7-2.8s2.7,1.2,2.7,2.8c0,1.3-1.2,2.5-2.7,2.5
				S-0.7-15.1-0.7-16.4"/>
		</g>
		<g id="g28" transform="translate(77.3149,757.2842)">
			<path id="path30" inkscape:connector-curvature="0" class="st4" d="M7.2-16.4h3v-2.1H4.8V-9h2.5V-16.4z"/>
		</g>
	</g>
</g>
</svg>
