<svg xmlns="http://www.w3.org/2000/svg" version="1.1" xmlns:xlink="http://www.w3.org/1999/xlink" xmlns:svgjs="http://svgjs.dev/svgjs" width="1920" height="880" preserveAspectRatio="none" viewBox="0 0 1920 880"><g mask="url(&quot;#SvgjsMask1072&quot;)" fill="none"><rect width="1920" height="880" x="0" y="0" fill="rgba(52, 67, 127, 1)"></rect><path d="M44 880L924 0L1218 0L338 880z" fill="url(&quot;#SvgjsLinearGradient1073&quot;)"></path><path d="M672.6 880L1552.6 0L2476.6 0L1596.6 880z" fill="url(&quot;#SvgjsLinearGradient1073&quot;)"></path><path d="M1839 880L959 0L489.5 0L1369.5 880z" fill="url(&quot;#SvgjsLinearGradient1074&quot;)"></path><path d="M1170.4 880L290.4000000000001 0L-39.59999999999991 0L840.4000000000001 880z" fill="url(&quot;#SvgjsLinearGradient1074&quot;)"></path><path d="M1042.8996918425987 880L1920 2.8996918425987133L1920 880z" fill="url(&quot;#SvgjsLinearGradient1073&quot;)"></path><path d="M0 880L877.1003081574013 880L 0 2.8996918425987133z" fill="url(&quot;#SvgjsLinearGradient1074&quot;)"></path></g><defs><mask id="SvgjsMask1072"><rect width="1920" height="880" fill="#ffffff"></rect></mask><linearGradient x1="0%" y1="100%" x2="100%" y2="0%" id="SvgjsLinearGradient1073"><stop stop-color="rgba(103, 114, 139, 0.94)" offset="0"></stop><stop stop-opacity="0" stop-color="rgba(103, 114, 139, 0.94)" offset="0.66"></stop></linearGradient><linearGradient x1="100%" y1="100%" x2="0%" y2="0%" id="SvgjsLinearGradient1074"><stop stop-color="rgba(103, 114, 139, 0.94)" offset="0"></stop><stop stop-opacity="0" stop-color="rgba(103, 114, 139, 0.94)" offset="0.66"></stop></linearGradient></defs></svg>